<svg width="1080" height="1080" viewBox="0 0 1080 1080" fill="none" xmlns="http://www.w3.org/2000/svg">
<rect width="1080" height="1080" fill="black"/>
<path d="M301.648 609V469.352H327.527L401.258 571.109V469.352H426.16V609H400.281L326.551 505.094V609H301.648ZM551.16 469.352V491.617H481.238V526.773H547.84V549.918H480.945V586.539H552.527V609H455.555V469.352H551.16ZM574.012 603.141V579.703C588.009 584.911 603.829 587.516 621.473 587.516C642.892 587.516 653.602 580.354 653.602 566.031C653.602 555.615 647.026 550.406 633.875 550.406H612C583.419 550.406 569.129 537.385 569.129 511.344C569.129 482.698 589.474 468.375 630.164 468.375C645.789 468.375 660.6 470.654 674.598 475.211V498.648C660.6 493.44 645.789 490.836 630.164 490.836C606.727 490.836 595.008 497.672 595.008 511.344C595.008 521.76 600.672 526.969 612 526.969H633.875C664.279 526.969 679.48 539.99 679.48 566.031C679.48 595.328 660.145 609.977 621.473 609.977C603.829 609.977 588.009 607.698 574.012 603.141ZM792.762 469.352V491.812H752.723V609H726.844V491.812H686.805V469.352H792.762Z" fill="white"/>
</svg>
